{
  "asset": {
    "generator": "Δmension Mathematical Universe v1.0 - UUON Foundation",
    "version": "2.0",
    "copyright": "© 2025 UUON Foundation - Phillip A. Ruiz III - Hash: 290FEB95",
    "extras": {
      "dc:creator": "Phillip A. Ruiz III/UUON Foundation",
      "dc:title": "metatron_cube_enhanced Mathematical Model",
      "dc:date": "2025-10-17T08:15:58.345Z",
      "dc:type": "3D Model",
      "dc:format": "model/gltf+json",
      "dc:rights": "Creative Commons Attribution 4.0 International",
      "dc:description": "Parametric mathematical surface model generated using sacred geometry principles",
      "authoringTool": "Δmension Mathematical Universe v1.0",
      "shapeName": "metatron cube enhanced",
      "shapeType": "metatron_cube_enhanced",
      "creationDate": "2025-10-17T08:15:58.345Z",
      "modificationDate": "2025-10-17T08:15:58.345Z",
      "upAxis": "Y",
      "units": "meters",
      "coordinateSystem": "right-handed",
      "topology": {
        "vertexCount": 10201,
        "faceCount": 20000,
        "edgeCount": 30199,
        "manifoldStatus": true,
        "watertight": true
      },
      "quality": {
        "meshResolution": "high",
        "triangulation": "delaunay",
        "normalQuality": "computed",
        "uvMappingQuality": 1
      },
      "polygonAnalysis": {
        "vertexCount": 10201,
        "triangleCount": 20000,
        "hasNormals": true,
        "hasUVs": true,
        "manifold": true,
        "watertight": true,
        "boundingBox": {
          "min": [
            -7.016122341156006,
            -6.174633502960205,
            -1.4838497638702393
          ],
          "max": [
            9.016122817993164,
            8.174633979797363,
            1.4784982204437256
          ],
          "center": [
            1.000000238418579,
            1.000000238418579,
            -0.002675771713256836
          ],
          "size": [
            16.03224515914917,
            14.349267482757568,
            2.962347984313965
          ]
        }
      },
      "authentication": {
        "uuon_authentication": {
          "creator": "Phillip Aguilar Ruiz III",
          "organization": "UUO8 F\u0007undation Inc",
          "domain": "www.uuonfoundation.com",
          "contact": "phi1@uuonfoundation.com",
          "model_name": "metatron_cube_enhanced",
          "export_timestamp": "2025-10-17T08:15:58.345Z",
          "authentication_hash": "30112884",
          "watermark_signature": "UUON_PROTECTED_1760688958345",
          "integrity_check": "VALID",
          "copyright_notice": "© UUON Foundation Inc. All Rights Reserved.",
          "license": "Protected by steganographic watermarking system",
          "tamper_warning": "Modifying authentication data is prohibited and may result in legal action"
        }
      },
      "uuonFoundationSeal": {
        "creator": "Phillip Aguilar Ruiz III",
        "organization": "UUO8 F\u0007undation Inc",
        "authenticationHash": "290FEB95",
        "exportTimestamp": "2025-10-17T08:15:58.345Z",
        "securityLevel": 7,
        "copyrightNotice": "© 2025 UUON Foundation Inc. All Rights Reserved.",
        "tamperProtection": "This model is protected by steganographic watermarking",
        "integrityVerification": "UUON_AUTHENTICATED_1760688958345"
      },
      "mathematicalParameters": {
        "a": 2,
        "b": 2.57353,
        "c": 1,
        "d": 0,
        "e": 0,
        "f": 0,
        "g": 1,
        "h": 1,
        "i": 1,
        "j": 0,
        "k": 0,
        "l": 0,
        "m": 1,
        "n": 0,
        "o": 0,
        "p": 0,
        "q": 0,
        "r": 0,
        "s": 0,
        "t": 0,
        "u": 0,
        "v": 0,
        "w": 0,
        "uRange": [
          0,
          1
        ],
        "vRange": [
          0,
          9.71
        ],
        "segments": [
          500,
          126
        ]
      },
      "industryStandards": {
        "gltfCompliant": true,
        "pbrMaterialCompliant": true,
        "dcmiCompliant": true,
        "webGL2Compatible": true,
        "realTimeRendering": true
      },
      "creator": "Phillip Aguilar Ruiz III",
      "organization": "UUO8 F\u0007undation Inc",
      "authenticationHash": "290FEB95",
      "specializedProducts": "Therapeutic Sacred Geometry & Mathematical Healing Surfaces for PTSD Recovery",
      "revolutionaryFeatures": "24-Sector Directional Parameter Control System & 4D Stereographic Projections",
      "domain": "www.uuonfoundation.com",
      "contact": "phi1@uuonfoundation.com"
    }
  },
  "scenes": [
    {
      "nodes": [
        0
      ]
    }
  ],
  "scene": 0,
  "nodes": [
    {
      "name": "metatron_cube_enhanced_solid",
      "mesh": 0
    }
  ],
  "bufferViews": [
    {
      "buffer": 0,
      "byteOffset": 0,
      "byteLength": 122412,
      "target": 34962,
      "byteStride": 12
    },
    {
      "buffer": 0,
      "byteOffset": 122412,
      "byteLength": 81608,
      "target": 34962,
      "byteStride": 8
    },
    {
      "buffer": 0,
      "byteOffset": 204020,
      "byteLength": 122412,
      "target": 34962,
      "byteStride": 12
    },
    {
      "buffer": 0,
      "byteOffset": 326432,
      "byteLength": 163216,
      "target": 34962,
      "byteStride": 16
    },
    {
      "buffer": 0,
      "byteOffset": 489648,
      "byteLength": 120000,
      "target": 34963
    }
  ],
  "buffers": [
    {
      "byteLength": 609648,
      "uri": "data:application/octet-stream;base64,"
    }
  ],
  "accessors": [
    {
      "bufferView": 0,
      "componentType": 5126,
      "count": 10201,
      "max": [
        9.016122817993164,
        8.174633979797363,
        1.4784982204437256
      ],
      "min": [
        -7.016122341156006,
        -6.174633502960205,
        -1.4838497638702393
      ],
      "type": "VEC3"
    },
    {
      "bufferView": 1,
      "componentType": 5126,
      "count": 10201,
      "max": [
        1,
        1
      ],
      "min": [
        0,
        0
      ],
      "type": "VEC2"
    },
    {
      "bufferView": 2,
      "componentType": 5126,
      "count": 10201,
      "max": [
        0.9999723434448242,
        0.9998356699943542,
        0.9992676377296448
      ],
      "min": [
        -0.9985046982765198,
        -0.9989306330680847,
        -0.9988026022911072
      ],
      "type": "VEC3"
    },
    {
      "bufferView": 3,
      "componentType": 5126,
      "count": 10201,
      "max": [
        0.9999698400497437,
        0.9999918937683105,
        0.7228238582611084,
        1
      ],
      "min": [
        -0.9998319745063782,
        -0.9999991059303284,
        -0.841036319732666,
        -1
      ],
      "type": "VEC4"
    },
    {
      "bufferView": 4,
      "componentType": 5123,
      "count": 60000,
      "max": [
        10200
      ],
      "min": [
        0
      ],
      "type": "SCALAR"
    }
  ],
  "materials": [
    {
      "pbrMetallicRoughness": {
        "baseColorFactor": [
          0,
          1,
          0.24620132669705552,
          1
        ],
        "metallicFactor": 0.1,
        "roughnessFactor": 0.4
      },
      "doubleSided": true,
      "extensions": {
        "KHR_materials_ior": {
          "ior": 1.272727272727273
        },
        "KHR_materials_clearcoat": {
          "clearcoatFactor": 0.2,
          "clearcoatRoughnessFactor": 0
        }
      }
    }
  ],
  "meshes": [
    {
      "primitives": [
        {
          "mode": 4,
          "attributes": {
            "POSITION": 0,
            "TEXCOORD_0": 1,
            "NORMAL": 2,
            "TANGENT": 3
          },
          "extras": {
            "uuon_authentication": {
              "creator": "Phillip Aguilar Ruiz III",
              "organization": "UUO8 F\u0007undation Inc",
              "domain": "www.uuonfoundation.com",
              "contact": "phi1@uuonfoundation.com",
              "model_name": "metatron_cube_enhanced",
              "export_timestamp": "2025-10-17T08:15:58.330Z",
              "authentication_hash": "30112860",
              "watermark_signature": "UUON_PROTECTED_1760688958330",
              "integrity_check": "VALID",
              "copyright_notice": "© UUON Foundation Inc. All Rights Reserved.",
              "license": "Protected by steganographic watermarking system",
              "tamper_warning": "Modifying authentication data is prohibited and may result in legal action"
            },
            "exportType": "solid",
            "exportTimestamp": "2025-10-17T08:15:58.330Z",
            "authenticationLevel": "MAXIMUM_SECURITY",
            "watermarkEmbedded": true,
            "geometryFingerprint": "290FEB95",
            "vertexCount": 10201,
            "copyrightNotice": "© UUON Foundation Inc. All Rights Reserved.",
            "createdBy": "Phillip Aguilar Ruiz III",
            "organization": "UUO8 F\u0007undation Inc",
            "contactInfo": "phi1@uuonfoundation.com",
            "socialMedia": {
              "instagram": "@uuon.foundation",
              "youtube": "https://www.youtube.com/channel/UC4sESexz8vYUW2WNZsYwOfQ",
              "cgtrader": "https://www.cgtrader.com/designers/uuon-foundation"
            },
            "tamperWarning": "Modifying authentication data is prohibited and may result in legal action"
          },
          "indices": 4,
          "material": 0
        }
      ]
    }
  ],
  "extensionsUsed": [
    "KHR_materials_ior",
    "KHR_materials_clearcoat"
  ]
}